<svg id="Logo" xmlns="http://www.w3.org/2000/svg" xmlns:xlink="http://www.w3.org/1999/xlink" width="321.175" height="54.12" viewBox="0 0 321.175 54.12">
  <defs>
    <linearGradient id="linear-gradient" y1="0.5" x2="1" y2="0.5" gradientUnits="objectBoundingBox">
      <stop offset="0" stop-color="#0090c6"/>
      <stop offset="1" stop-color="#90c690"/>
    </linearGradient>
  </defs>
  <path id="Schriftmarke" d="M228.534,54.12V33.232a6.983,6.983,0,0,0-.933-3.553,7.13,7.13,0,0,0-2.548-2.584,6.909,6.909,0,0,0-3.624-.969,7.041,7.041,0,0,0-3.7.969,7.122,7.122,0,0,0-2.548,2.584,6.974,6.974,0,0,0-.933,3.553V54.12H203.125V32.945A15.776,15.776,0,0,1,211.7,18.662a20.363,20.363,0,0,1,9.8-2.225,20.111,20.111,0,0,1,9.8,2.225,15.7,15.7,0,0,1,6.208,5.957,16.362,16.362,0,0,1,2.153,8.326V54.12Zm-89.4,0a10.007,10.007,0,0,1-5.24-1.292,9.395,9.395,0,0,1-4.594-8.111,8.054,8.054,0,0,1,1.256-4.414,10.836,10.836,0,0,1,3.41-3.338L147.1,28.208a1.373,1.373,0,0,0,.5-.467.885.885,0,0,0,.143-.395.785.785,0,0,0-.287-.61,1.053,1.053,0,0,0-.718-.251H130.875V17.3h19.739a9.2,9.2,0,0,1,4.988,1.328,10.012,10.012,0,0,1,3.374,3.481,9.113,9.113,0,0,1,1.256,4.665,8.664,8.664,0,0,1-1.184,4.414,10.339,10.339,0,0,1-3.194,3.41L142.719,43.21a1.814,1.814,0,0,0-.431.431.763.763,0,0,0-.144.43.777.777,0,0,0,.287.61,1.041,1.041,0,0,0,.717.252h16.366V54.12Zm-23.361,0V17.3h11.2V54.12Zm-15.048,0V1.723h11.125v52.4Zm-14.869,0V52.359a21.409,21.409,0,0,1-18.454-.7,18.32,18.32,0,0,1-9.544-16.349,18.3,18.3,0,0,1,2.561-9.648A18.751,18.751,0,0,1,67.4,18.928a21.1,21.1,0,0,1,19.892,0,18.844,18.844,0,0,1,6.947,6.736,18.291,18.291,0,0,1,2.56,9.578h0V54.12ZM72.836,27.173a8.476,8.476,0,0,0-2.982,3.368,10.373,10.373,0,0,0-1.052,4.7,10.526,10.526,0,0,0,1.052,4.772,8.483,8.483,0,0,0,2.982,3.368,8.077,8.077,0,0,0,4.526,1.262,7.908,7.908,0,0,0,4.491-1.262A8.575,8.575,0,0,0,84.8,40.014a10.514,10.514,0,0,0,1.053-4.772,10.361,10.361,0,0,0-1.053-4.7,8.568,8.568,0,0,0-2.947-3.368,7.9,7.9,0,0,0-4.491-1.263A8.07,8.07,0,0,0,72.836,27.173ZM40.308,54.12a24.557,24.557,0,0,1-10.982-2.333,17.782,17.782,0,0,1-7.357-6.46,17.488,17.488,0,0,1-2.62-9.582,20.159,20.159,0,0,1,2.513-10.336,17.531,17.531,0,0,1,6.711-6.64,18.822,18.822,0,0,1,9.3-2.333,18.061,18.061,0,0,1,9.726,2.441,15.611,15.611,0,0,1,5.922,6.64A21.949,21.949,0,0,1,55.524,35.1q0,.934-.108,2.189a18.7,18.7,0,0,1-.251,1.974H31.049A6.684,6.684,0,0,0,32.7,42.421a7.239,7.239,0,0,0,3.086,1.9,13.324,13.324,0,0,0,4.163.61H54.6V54.12ZM34.924,25.983a6.223,6.223,0,0,0-2.153,1.543,6.957,6.957,0,0,0-1.328,2.225,13.761,13.761,0,0,0-.682,2.548h14a16.932,16.932,0,0,0-.431-2.225,5.606,5.606,0,0,0-.9-1.9,7.294,7.294,0,0,0-1.4-1.435,6.406,6.406,0,0,0-1.83-.969,7.8,7.8,0,0,0-5.276.215ZM0,54.12V27.2a10.671,10.671,0,0,1,2.871-7.9q2.87-2.87,7.967-2.871h8.51v9.044H13.566a2.414,2.414,0,0,0-1.723.682,2.317,2.317,0,0,0-.718,1.758v26.2Zm171.394-2.459a18.32,18.32,0,0,1-9.543-16.349,18.305,18.305,0,0,1,2.561-9.648,18.757,18.757,0,0,1,6.982-6.736,21.1,21.1,0,0,1,19.893,0,18.84,18.84,0,0,1,6.947,6.736,18.314,18.314,0,0,1,2.561,9.648,18.323,18.323,0,0,1-9.543,16.349,21.3,21.3,0,0,1-19.858,0Zm5.438-24.489a8.475,8.475,0,0,0-2.982,3.368,10.373,10.373,0,0,0-1.052,4.7,10.526,10.526,0,0,0,1.052,4.772,8.481,8.481,0,0,0,2.982,3.368,8.076,8.076,0,0,0,4.526,1.262,7.909,7.909,0,0,0,4.49-1.262,8.58,8.58,0,0,0,2.947-3.368,10.522,10.522,0,0,0,1.053-4.772,10.369,10.369,0,0,0-1.053-4.7,8.573,8.573,0,0,0-2.947-3.368,7.9,7.9,0,0,0-4.49-1.263A8.069,8.069,0,0,0,176.832,27.173ZM116.774,11.2A6.276,6.276,0,0,1,114.836,6.6a6.4,6.4,0,0,1,1.938-4.63,6.333,6.333,0,0,1,9.187,0A6.4,6.4,0,0,1,127.9,6.6a6.274,6.274,0,0,1-1.938,4.593,6.413,6.413,0,0,1-9.187,0Z" transform="translate(81.516)" fill="url(#linear-gradient)"/>
  <g id="Bildmarke" transform="translate(0 16.435)">
    <path id="Pfad_98" data-name="Pfad 98" d="M513.969,528.759h0l-21.037-12.146v18.739a9.616,9.616,0,0,0,4.808,8.328l11.42,6.594a9.617,9.617,0,0,0,9.616,0l44.757-25.737-7.459,4.279A42.206,42.206,0,0,1,513.969,528.759Z" transform="translate(-492.931 -513.879)" fill="#0090c6"/>
    <path id="Pfad_99" data-name="Pfad 99" d="M603.75,519.31l-7.459,4.279a42.206,42.206,0,0,1-42.106-.057h0L577.9,509.94a9.617,9.617,0,0,1,9.616,0Z" transform="translate(-533.148 -508.652)" fill="#8cc88c"/>
  </g>
</svg>
